<svg id="Layer_1" data-name="Layer 1" xmlns="http://www.w3.org/2000/svg" viewBox="0 0 12 12"><defs><style>.cls-1{fill:#b5bdc4;}</style></defs><path class="cls-1" d="M11,2A3.37,3.37,0,0,0,6.3,2L6,2.24H6L5.7,2A3.37,3.37,0,0,0,1,2a3.41,3.41,0,0,0,0,4.72C2.1,8,5.51,10.73,5.65,10.84A.54.54,0,0,0,6,11H6a.45.45,0,0,0,.34-.12,61.46,61.46,0,0,0,4.72-4.17A3.41,3.41,0,0,0,11,2Zm-.73,4.12A56.72,56.72,0,0,1,6,9.9c-.88-.72-3.41-2.84-4.32-3.84a2.41,2.41,0,0,1,0-3.34A2.33,2.33,0,0,1,3.33,2,2.37,2.37,0,0,1,5,2.72l1,1,.43-.44L7,2.71A2.32,2.32,0,0,1,8.67,2a2.37,2.37,0,0,1,1.67.68A2.43,2.43,0,0,1,10.31,6.07Z"/></svg>